<svg width="80" height="80" viewBox="0 0 80 80" fill="none" xmlns="http://www.w3.org/2000/svg">
<g clip-path="url(#clip0_1_2)">
<rect x="1" y="1" width="78" height="78" rx="39" fill="white"/>
<path d="M39.9933 0C17.8867 0 8.90158e-06 17.89 8.90158e-06 40C-0.00349718 45.2539 1.02874 50.4569 3.03769 55.3115C5.04663 60.1661 7.99288 64.5771 11.7079 68.2921C15.423 72.0071 19.8339 74.9534 24.6885 76.9623C29.5431 78.9713 34.7462 80.0035 40 80C62.11 80 80 62.11 80 40C79.9967 17.89 61.96 0 39.9933 0ZM21.2333 48.5833C22.54 50.3267 24.2867 51.0567 26.7567 51.0567C27.9233 51.0567 29.0867 50.91 30.1033 50.4733C31.1233 50.04 32.2867 49.4533 33.7367 48.5833L37.8133 54.4C34.47 57.1667 30.6867 58.4733 26.3233 58.4733C22.83 58.4733 19.9233 57.7467 17.3067 56.2933C14.7664 54.7948 12.7379 52.5641 11.4867 49.8933C10.18 47.1267 9.45001 43.9267 9.45001 40.1433C9.45001 36.51 10.18 33.1633 11.4833 30.4C12.7278 27.6471 14.754 25.3206 17.31 23.71C19.78 22.11 22.8333 21.3833 26.18 21.3833C28.51 21.3833 30.69 21.6733 32.4367 22.4C34.3962 23.1585 36.2148 24.2402 37.8167 25.6L33.7433 31.1267C32.7092 30.3632 31.5867 29.7275 30.4 29.2333C29.3833 28.8 28.0733 28.6533 26.9067 28.6533C21.9633 28.6533 19.49 32.4333 19.49 40.14C19.3467 44.0733 20.0733 46.8333 21.2367 48.58L21.2333 48.5833ZM61.2333 57.6C59.78 62.11 57.5967 65.4567 54.54 67.9267C51.4867 70.4033 47.4133 71.71 42.3233 72.1467L41.3067 65.3133C44.65 64.8733 47.1233 64.1467 48.7233 62.98C49.3033 62.5467 50.47 61.2367 50.47 61.2367L38.3967 22.5467H48.43L55.4133 51.49L62.8333 22.5467H72.5767L61.2333 57.6Z" fill="black"/>
</g>
<defs>
<clipPath id="clip0_1_2">
<rect width="80" height="80" fill="white"/>
</clipPath>
</defs>
</svg>
