<svg width="111" height="28" viewBox="0 0 111 28" fill="none" xmlns="http://www.w3.org/2000/svg">
<rect width="111" height="28" fill="#26B8AF"/>
<path d="M36.4235 10.74H39.3825C39.8042 10.74 40.18 10.828 40.51 11.004C40.84 11.18 41.1003 11.4348 41.291 11.7685C41.4853 12.0985 41.5825 12.4927 41.5825 12.951C41.5825 13.4093 41.5 13.7852 41.335 14.0785C41.1737 14.3682 40.9793 14.5863 40.752 14.733C40.5247 14.876 40.3138 14.9622 40.1195 14.9915L41.885 18H40.037L38.464 15.118H38.068V18H36.4235V10.74ZM38.068 13.9795H38.794C39.0873 13.9795 39.344 13.908 39.564 13.765C39.784 13.622 39.894 13.369 39.894 13.006C39.894 12.643 39.7858 12.3918 39.5695 12.2525C39.3532 12.1095 39.0983 12.038 38.805 12.038H38.068V13.9795ZM45.4963 10.74H50.1328V12.181H47.1353V13.6605H50.1053V15.0575H47.1353V16.559H50.1328V18H45.4963V10.74ZM56.5477 10.608C56.9987 10.608 57.3929 10.6575 57.7302 10.7565C58.0676 10.8555 58.3389 10.96 58.5442 11.07C58.7496 11.18 58.8742 11.2533 58.9182 11.29L58.1262 12.6155C58.0676 12.5715 57.9667 12.5073 57.8237 12.423C57.6844 12.3387 57.5176 12.2635 57.3232 12.1975C57.1326 12.1315 56.9327 12.0985 56.7237 12.0985C56.4414 12.0985 56.2122 12.1498 56.0362 12.2525C55.8639 12.3515 55.7777 12.5 55.7777 12.698C55.7777 12.8337 55.8236 12.9565 55.9152 13.0665C56.0106 13.1728 56.1536 13.2755 56.3442 13.3745C56.5386 13.4698 56.7842 13.5743 57.0812 13.688C57.3526 13.787 57.6074 13.9043 57.8457 14.04C58.0841 14.1757 58.2931 14.337 58.4727 14.524C58.6561 14.7073 58.8009 14.92 58.9072 15.162C59.0136 15.404 59.0667 15.679 59.0667 15.987C59.0667 16.3537 58.9916 16.6727 58.8412 16.944C58.6909 17.2117 58.4856 17.4335 58.2252 17.6095C57.9686 17.7855 57.6752 17.9157 57.3452 18C57.0189 18.088 56.6797 18.132 56.3277 18.132C55.8291 18.132 55.3817 18.0752 54.9857 17.9615C54.5934 17.8478 54.2762 17.725 54.0342 17.593C53.7922 17.461 53.6474 17.373 53.5997 17.329L54.4192 15.9485C54.4632 15.9815 54.5476 16.0347 54.6722 16.108C54.8006 16.1813 54.9564 16.2583 55.1397 16.339C55.3231 16.416 55.5174 16.482 55.7227 16.537C55.9317 16.592 56.1371 16.6195 56.3387 16.6195C56.6761 16.6195 56.9291 16.5553 57.0977 16.427C57.2664 16.295 57.3507 16.1227 57.3507 15.91C57.3507 15.7523 57.2976 15.6112 57.1912 15.4865C57.0849 15.3618 56.9254 15.2445 56.7127 15.1345C56.5001 15.0208 56.2342 14.9017 55.9152 14.777C55.5962 14.6487 55.2974 14.4928 55.0187 14.3095C54.7437 14.1262 54.5201 13.897 54.3477 13.622C54.1754 13.347 54.0892 13.006 54.0892 12.599C54.0892 12.192 54.2029 11.84 54.4302 11.543C54.6612 11.2423 54.9637 11.0113 55.3377 10.85C55.7154 10.6887 56.1187 10.608 56.5477 10.608ZM66.784 10.74H68.4285V15.2005C68.4285 15.7982 68.3112 16.317 68.0765 16.757C67.8418 17.1933 67.5063 17.5325 67.07 17.7745C66.6337 18.0128 66.113 18.132 65.508 18.132C64.8993 18.132 64.375 18.0128 63.935 17.7745C63.495 17.5325 63.1577 17.1933 62.923 16.757C62.692 16.317 62.5765 15.7982 62.5765 15.2005V10.74H64.2155V15.1125C64.2155 15.4425 64.2668 15.7212 64.3695 15.9485C64.4758 16.1758 64.6262 16.3482 64.8205 16.4655C65.0148 16.5792 65.244 16.636 65.508 16.636C65.7683 16.636 65.9938 16.5792 66.1845 16.4655C66.3752 16.3482 66.5218 16.1758 66.6245 15.9485C66.7308 15.7212 66.784 15.4425 66.784 15.1125V10.74ZM79.8544 10.74V18H78.2154V13.7265L78.2869 12.511L78.0064 13.9025L76.7854 17.417H75.1739L73.9584 13.9025L73.6834 12.511L73.7549 13.7265V18H72.1104V10.74H74.4204L75.8834 15.5855L75.9824 16.163L76.0814 15.5855L77.5444 10.74H79.8544ZM83.6963 10.74H88.3328V12.181H85.3353V13.6605H88.3053V15.0575H85.3353V16.559H88.3328V18H83.6963V10.74Z" fill="white"/>
<path fill-rule="evenodd" clip-rule="evenodd" d="M12.5683 7.5733C12.4286 7.7973 12.4286 8.0913 12.4286 8.68V13.3H11.4026C10.6457 13.3 10.2669 13.3 10.0877 13.4232C10.0108 13.476 9.95018 13.5427 9.91059 13.6181C9.87099 13.6934 9.85357 13.7753 9.85971 13.8572C9.87429 14.049 10.1357 14.2723 10.6577 14.7196L14.256 17.8003C14.5149 18.0229 14.6443 18.1335 14.796 18.1748C14.9284 18.211 15.0716 18.211 15.204 18.1748C15.3557 18.1335 15.4851 18.0229 15.744 17.8003L19.3423 14.7203C19.8651 14.2723 20.1257 14.0483 20.1394 13.8572C20.1457 13.7754 20.1284 13.6935 20.0889 13.6182C20.0495 13.5428 19.989 13.476 19.9123 13.4232C19.7331 13.3 19.3551 13.3 18.5974 13.3H17.5714V8.68C17.5714 8.092 17.5714 7.798 17.4309 7.5733C17.3078 7.37566 17.1112 7.21492 16.8694 7.1141C16.5951 7 16.2351 7 15.5143 7H14.4857C13.7657 7 13.4057 7 13.1306 7.1141C12.8884 7.2148 12.6916 7.37556 12.5683 7.5733ZM9 20.3C9 20.4857 9.09031 20.6637 9.25105 20.795C9.4118 20.9263 9.62981 21 9.85714 21H20.1429C20.3702 21 20.5882 20.9263 20.7489 20.795C20.9097 20.6637 21 20.4857 21 20.3C21 20.1143 20.9097 19.9363 20.7489 19.805C20.5882 19.6737 20.3702 19.6 20.1429 19.6H9.85714C9.62981 19.6 9.4118 19.6737 9.25105 19.805C9.09031 19.9363 9 20.1143 9 20.3Z" fill="white"/>
</svg>
